<svg xmlns="http://www.w3.org/2000/svg" viewBox="0 0 30 30"><path d="M15 3C8.4 3 3 8.4 3 15c0 5.6 3.9 10.3 9.1 11.6-.1-.1-.1-.3-.1-.6v-2h-1.5c-.8 0-1.6-.4-1.9-1-.4-.7-.5-1.8-1.4-2.5-.3-.3-.1-.5.2-.5.6.2 1.1.6 1.6 1.2s.7.8 1.6.8c.4 0 1.1 0 1.7-.1.3-.8.9-1.6 1.6-2-4-.4-5.9-2.4-5.9-5.1 0-1.2.5-2.3 1.3-3.2-.2-1-.6-2.9.1-3.6 1.8 0 2.9 1.2 3.1 1.5 1-.3 2-.5 3-.5s2 .2 2.9.5c.3-.3 1.4-1.5 3.2-1.5.7.7.4 2.7.1 3.6.8.9 1.3 2.1 1.3 3.2 0 2.7-1.9 4.7-5.9 5.1 1.1.6 1.9 2.2 1.9 3.4v3c4.7-1.6 8-6.1 8-11.3 0-6.6-5.4-12-12-12z" fill="#0fb400"/></svg>