<svg xmlns="http://www.w3.org/2000/svg" viewBox="0 0 32 32"><path d="M22.2 1c-.1 0-.1 0 0 0l-3.8 4.4-.8 2.6H16c-3.9 0-7 .4-7 .9 0 1.2 14 1.2 14 0 0-.4-1.7-.7-4.1-.8l.6-2.1L23 1.8c.1-.1-.1-.3-.3-.5-.2-.2-.4-.3-.5-.3zm-4.9 8.1c0 .1.3.2.7.2s.7-.1.7-.1c.1 0 .2.1.2.1 0 .1-.4.2-.8.2-.5 0-.8-.1-.8-.2-.2-.1-.1-.2 0-.2zm5.6.3c-1.9 1-12 1-13.8 0l.8 7.2c.4-1.2 1.3-2.7 2.4-3.2.4-.2.8-.2 1.1.1.3.2.6.5.6.7.1.4-.1.5-.3.5-.2 0-.3-.3-.4-.4-.2-.4-.6-.4-1-.2-.4.3-.8.8-1 1.2-.3.5-.6 1.1-.7 1.6-.1.3-.2.8 0 1.1.1.1.2.2.3.2.3 0 .7-.4 1-.6.3-.3.6-.7.8-.9l.3-.9c.2-.4.6-.3.6 0 0 .6-.2.8-.6 2-.4 1.1-.5 1.5-.5 1.5 0 .2-.2.4-.4.4-.1 0-.1 0-.2-.1s-.1-.3 0-.4c0-.2.4-1.3.4-1.5-.1.1-.2.3-.4.4-.3.5-.9.9-1.3.9-.2 0-.3-.1-.5-.1l.5 4.6c.1.3 2.4 1 5.3 1 3 0 5.2-.7 5.3-1l.7-5.5c-.3.3-.7.7-1.2.9-.3.1-1.1.2-1.1-.3 0-.3.6-.9.9-1.2.1-.1.3-.3.3-.5s-.4-.1-.7.1c-.2.2-.4.4-.5.6-.3.3-.4.6-.5.9-.4.8-.2.5-.6 1.3-.3.8-.3.7-.3.8-.1.1-.1.2-.2.3-.1.1-.3.1-.4 0-.1 0-.1-.1-.1-.2v-.2c.1-.4.5-1 .9-2 .1-.2.1-.1 0-.1-.4.3-.7.5-.9.6-.4.1-.8.1-.9-.2v-.1c-.7.5-1.5.7-1.2-.5-.3.5-.8.9-1.4.9-.2 0-.4-.1-.5-.3-.1-.3.1-.9.3-1.4.1-.3.2-.6.4-.9.1-.2.3-.3.5-.3h.1c.2.1.1.3 0 .4-.2.4-.4.7-.6 1.2-.1.2-.1.5.1.5.1 0 .3 0 .4-.1.3-.2.5-.5.7-.8.1-.2.3-.5.3-.7 0-.1.1-.2.1-.3.1-.1.2-.3.3-.3.1 0 .1 0 .2.1s.1.3 0 .4c-.1.3-.3.6-.4 1 .2.1.1.4.1.6 0 .2.2.1.4.1.1-.1.3-.2.4-.3.1-.3.1-.2 1.6-3.9.1-.2.2-.3.4-.3.1 0 .1 0 .2.1s.1.2.1.4c0 .1 0 .1-.3.6-.3.7-.5 1.2-.8 1.8-.1.3-.5 1.1-.5 1.3 0 .1-.1.3.1.3.3 0 1.2-.8 1.4-1h.1c0-.1.1-.2.1-.3.1-.2.2-.5.3-.7 0-.1.1-.1.2-.1.2 0 .3.1.3.2s0 .3-.1.4l.3-.3c.9-.8 1.6-.4 1.6 0s-.5 1-.8 1.3c-.1.1-.3.3-.3.4 0 .1.1.1.1.1.1 0 .4-.2.5-.3.3-.2.7-.6 1-.8l.6-7.8zM10.9 24l.9 1.5.4 4.6c0 .5 1.7.9 3.8.9s3.8-.4 3.8-.9l.3-4.6.9-1.5c-2.4 1-7.6 1-10.1 0z" fill="#ff008f"/></svg>