<svg xmlns="http://www.w3.org/2000/svg" viewBox="0 0 50 50"><path d="M29.9 3c-.1 0-.2 0-.3.1-.9.4-1.8 1.7-2 1.9-1.1 1.5-1.6 3.2-1.6 5 0 1.3.2 2.6.8 3.9 1.2 2.9 3.8 5.3 6.8 6.5.1 0 .2.1.4.1l.2.1h.1c.2.1.3.1.5.1.8.2 1.6.2 2.3.3h.4c5.5 0 7.6-3.9 8.3-5.2.1-.1.1-.2.2-.3.3-.5.2-1.1-.3-1.4-.5-.3-1.1-.2-1.4.3-1.5 2.2-4 2.8-7.4 1.9-.3-.1-.5-.2-.8-.3-.3-.1-.7-.3-1-.4-.6-.3-1.2-.7-1.7-1.1-3-2.4-4.2-7.3-2.5-10.1.2-.4.2-.9-.1-1.2-.3-.1-.6-.2-.9-.2zM21 5c-.2 0-.5.1-.6.2-1.5 1.2-3.1 3.2-3.1 3.3-2.7 4-2.9 9.6-.5 14.4.4.8.8 1.5 1.3 2.1l.1.2c.4.6.8 1.2 1.4 1.7l.6.6.1.1.1.1.6.6.1.1c.2.2.5.4.8.7l.1.1c.3.2.5.4.8.6 0 0 .1 0 .1.1.1.1.2.1.3.2l.1.1.1.1c.2.1.4.3.7.4.2.1.4.2.5.3.1 0 .1.1.2.1l.3.2h.1l.6.3.3.1c.2.1.4.2.7.3h.2c.2.1.4.1.6.2l.4.1c.2.1.5.2.8.2 1.4.2 2.7.3 3.9.3h.4c11-.2 13.9-9.6 13.9-9.7.1-.5-.1-1-.5-1.2s-1-.1-1.3.3c-2.8 4.1-8.1 5.8-13.5 4.4-.2-.1-.5-.1-.8-.2-.1 0-.1 0-.2-.1-.2-.1-.3-.1-.5-.2l-.3-.1c-.2-.1-.3-.1-.5-.2l-.1.2c-.2-.1-.5-.2-.7-.3l-.6-.3c-.1-.1-.2-.1-.4-.2l-.1-.1-.1-.1c-.1-.1-.3-.2-.4-.3l-.1-.1-.1-.1c-.1-.1-.2-.1-.3-.2-.2-.2-.5-.4-.8-.6l-.1-.1c-2.6-2.1-4.5-4.8-5.4-7.8-.8-2.7-.2-6.2 1.7-9.5.2-.4.2-.9-.2-1.3-.2.1-.5 0-.7 0zM10 8c-.2 0-.5.1-.7.3C7.4 10 6 12.2 5.8 12.4c-4.1 5.9-3.3 15.2-.5 20.8.1.1.1.2.2.3v.1c.1.1.1.2.1.3 0 .1.1.2.1.2 0 .1.1.2.2.3l.4.6c0 .1.1.2.1.2.1.1.1.2.2.3l.2.2c0 .1.1.1.1.2.2.2.3.5.5.7l.1.1c.1.2.3.4.4.6l.6.7.1.1.1.1c.2.2.4.4.5.6l.1.1c.2.2.4.4.5.6l.2.2c.1.2.3.3.5.5l.1.1.2.1.5.5s.1.1.2.1c.2.2.4.3.6.5l1 .8c.2.1.3.2.5.4.1 0 .1.1.2.1 0 0 .1 0 .1.1l.7.5c.3.2.5.3.8.5l.2.1.6.3c.1.1.2.1.3.2.1.1.3.2.5.3l.2.1c.2.1.5.2.7.3h.1c.3.1.5.2.9.4h.1c.2.1.5.2.7.3l.1.1.9.3h.1l.2.1c.2.1.5.2.7.2 1.9.3 3.7.5 5.4.5C41.4 47.1 46 35.6 46 35.5c.2-.5 0-1-.5-1.2-.4-.2-1-.1-1.3.3-3.7 4.8-10.6 6.6-18.5 4.8-.2 0-.4-.1-.6-.2l-.4-.1c-.3-.1-.5-.2-.8-.2h-.1c-.2-.1-.4-.2-.6-.2l-.2-.4c-.2-.1-.5-.2-.7-.3h-.2l-.6-.3-.2-.1c-.1-.1-.3-.1-.5-.2l-.8-.5c-.1-.1-.2-.1-.2-.1-.2-.2-.5-.3-.8-.5-.1 0-.1-.1-.2-.1-.2-.1-.3-.2-.6-.4l-.1-.1c-.2-.1-.3-.2-.5-.3-.1-.1-.2-.1-.3-.2-.1-.1-.2-.2-.4-.3l-.2-.2c-.2-.1-.4-.3-.5-.5l-.1-.1-.6-.6-.7-.7c-.2-.2-.3-.4-.5-.6-.2-.2-.4-.4-.6-.7l-.4-.5-.2-.2c-.1-.2-.3-.4-.4-.6-3.9-5.4-4.9-16.5-1.9-20.6.3-.4.2-1-.1-1.3-.2-.2-.5-.3-.7-.3z" fill="#357fff"/></svg>