<svg xmlns="http://www.w3.org/2000/svg" width="64" height="64"><path fill="#f6d397" d="M5.015 7.244l5.466 45.246a4.021 4.021 0 002.9 3.379l17.535 4.977c.709.201 1.46.206 2.172.013l18.442-4.996a4.017 4.017 0 002.955-3.471l4.549-45.187A2.01 2.01 0 0057.025 5H7.019a2.01 2.01 0 00-2.004 2.244z"/><path fill="#f9e3ae" d="M52.357 10H32v46a3.1 3.1 0 00.885-.123l15.002-4.371c1.313-.382 2.269-1.59 2.404-3.037l3.701-36.539c.096-1.034-.663-1.93-1.635-1.93z"/><path fill="#8d6c9f" d="M32.025 62a5.11 5.11 0 01-1.382-.191l-17.536-4.978a5.009 5.009 0 01-3.619-4.221L4.021 7.364a3 3 0 01.733-2.347A3.031 3.031 0 017.019 4h50.007c.854 0 1.672.363 2.244.995.567.628.845 1.47.76 2.311l-4.55 45.186a5.047 5.047 0 01-3.688 4.336L33.35 61.824a5.088 5.088 0 01-1.325.176zM7.019 6a1.011 1.011 0 00-1.011 1.124l5.467 45.246a3.014 3.014 0 002.18 2.537l17.535 4.977a3.053 3.053 0 001.637.009l18.442-4.996a3.036 3.036 0 002.222-2.605L58.04 7.105a.99.99 0 00-.253-.769A1.017 1.017 0 0057.025 6H7.019z"/><path fill="#8d6c9f" d="M57 12a1 1 0 01-1-1V9a1 1 0 112 0v2a1 1 0 01-1 1zm-5 0a1 1 0 01-1-1V9a1 1 0 112 0v2a1 1 0 01-1 1zm-5 0a1 1 0 01-1-1V9a1 1 0 112 0v2a1 1 0 01-1 1zm-5 0a1 1 0 01-1-1V9a1 1 0 112 0v2a1 1 0 01-1 1zm-5 0a1 1 0 01-1-1V9a1 1 0 112 0v2a1 1 0 01-1 1zm-5 0a1 1 0 01-1-1V9a1 1 0 112 0v2a1 1 0 01-1 1zm-5 0a1 1 0 01-1-1V9a1 1 0 112 0v2a1 1 0 01-1 1zm-5 0a1 1 0 01-1-1V9a1 1 0 112 0v2a1 1 0 01-1 1zm-5 0a1 1 0 01-1-1V9a1 1 0 112 0v2a1 1 0 01-1 1zm-5 0a1 1 0 01-1-1V9a1 1 0 112 0v2a1 1 0 01-1 1zm-5 0a1 1 0 01-1-1V9a1 1 0 112 0v2a1 1 0 01-1 1z"/><path fill="#faefde" d="M24 19v25l-9-2 .615 6L29 51.815V19h-5zM49.821 24.048L50.256 19H35v22l8.946-2.066-.316 4.733L35 46v6l12.732-3.656 1.33-15.461L40 34V24l9.821.048z"/><path fill="#8d6c9f" d="M29 52.815c-.092 0-.184-.013-.274-.038l-13.385-3.815a1 1 0 01-.721-.86l-.615-6a.998.998 0 011.212-1.078L23 42.753V19a1 1 0 011-1h5a1 1 0 011 1v32.815a1.001 1.001 0 01-1 1zm-12.459-5.591L28 50.49V20h-3v24a1.002 1.002 0 01-1.217.976l-7.647-1.699.405 3.947zM35 53a1.002 1.002 0 01-1-1v-6c0-.452.303-.848.739-.965l7.94-2.147.179-2.677-7.634 1.763A.996.996 0 0134 41V19a1 1 0 011-1h15.257a1.002 1.002 0 01.996 1.086l-.436 5.048c-.044.519-.521.946-1.001.914L41 25.005v7.864l7.94-.979a1 1 0 011.118 1.078l-1.33 15.461a.998.998 0 01-.72.875l-12.732 3.655A.928.928 0 0135 53zm1-6.234v3.907l10.795-3.1 1.165-13.546-7.838.966A.998.998 0 0139 34V24c0-.266.106-.521.295-.709s.413-.286.71-.291l8.899.044.263-3.044H36v19.743l7.722-1.783a1.003 1.003 0 011.223 1.041l-.316 4.733a.999.999 0 01-.737.898L36 46.766z"/></svg>